<svg xmlns="http://www.w3.org/2000/svg" width="381.556" height="285.803" viewBox="0 0 381.556 285.803">
  <g id="Group_7" data-name="Group 7" transform="translate(-1918.133 -233.925)">
    <path id="Path_9" data-name="Path 9" d="M8.607,236.583s-29.777-59.291,21.439-104.05S114.015,72.079,130.69,52.9,152.129,0,152.129,0s37.341,142.647-45.5,182.7S8.607,236.583,8.607,236.583Z" transform="matrix(0.656, -0.755, 0.755, 0.656, 1966.937, 363.073)" fill="#d5c05f"/>
    <path id="Path_8" data-name="Path 8" d="M7.8,240.425s-26.981-60.254,19.426-105.74,76.087-61.435,91.2-80.929S137.847,0,137.847,0s33.835,144.964-41.226,185.664S7.8,240.425,7.8,240.425Z" transform="translate(2071.791 276.451) rotate(-17)" fill="#cdb64c"/>
    <path id="Path_7" data-name="Path 7" d="M2702.055-1256.037s-29.241-59.347,21.054-104.147,82.46-60.51,98.835-79.71S2843-1492.841,2843-1492.841s36.669,142.78-44.68,182.868S2702.055-1256.037,2702.055-1256.037Z" transform="translate(-551.551 1768.576)" fill="#e1cc6c"/>
    <path id="Path_10" data-name="Path 10" d="M7.893,251.211s-27.306-62.957,19.66-110.484,77-64.191,92.294-84.56S139.508,0,139.508,0,173.75,151.467,97.785,193.994,7.893,251.211,7.893,251.211Z" transform="matrix(0.407, -0.914, 0.914, 0.407, 1918.133, 417.551)" fill="#b7a657"/>
  </g>
</svg>
